# xmcd
#
# Track frame offsets:
#	150
#	20066
#	37188
#	51880
#	72198
#	91482
#	112008
#	130518
#	151853
#	171499
#	189433
#	207125
#	227027
#	250217
#
# Disc length: 3543 seconds
#
# Revision: 0
# Processed by: cddbd v1.5.2PL0 Copyright (c) Steve Scherf et al.
# Submitted via: dBpowerAMP V4.0
#
DISCID=c10dd50e
DTITLE=Bill Deraime - Brailleur de fond
DYEAR=2010
DGENRE=Blues
TTITLE0=Chanteur maudit
TTITLE1=Un jour tu trouves
TTITLE2=Veux tu de ma médecine
TTITLE3=la collectionneuse
TTITLE4=La marge
TTITLE5=Avant la paix
TTITLE6=Qu'est ce qui fait bouger le ge
TTITLE7=Laisse couler
TTITLE8=Energie positive
TTITLE9=Je suis l'homme
TTITLE10=Esclaves ou exclus
TTITLE11=Babylone tu déconnes
TTITLE12=Laisse faire
TTITLE13=Lord I can't bear
EXTD=
EXTT0=
EXTT1=
EXTT2=
EXTT3=
EXTT4=
EXTT5=
EXTT6=
EXTT7=
EXTT8=
EXTT9=
EXTT10=
EXTT11=
EXTT12=
EXTT13=
PLAYORDER=
